<?xml version="1.0" encoding="UTF-8"?>
<svg version="1.1" xmlns="http://www.w3.org/2000/svg" width="2289" height="464">
<path d="M0 0 C755.37 0 1510.74 0 2289 0 C2289 153.12 2289 306.24 2289 464 C1533.63 464 778.26 464 0 464 C0 310.88 0 157.76 0 0 Z " fill="#FEFEFE" transform="translate(0,0)"/>
<path d="M0 0 C52.14 0 104.28 0 158 0 C155.36 5.94 152.72 11.88 150 18 C145.04576768 32.43189416 142.61704511 45.32161076 142.6875 60.625 C142.69031982 61.28329803 142.69313965 61.94159607 142.69604492 62.61984253 C142.91350082 96.51065271 155.3790992 126.32153716 179.45947266 150.52978516 C196.76460575 167.04508016 218.59641674 178.3634671 242 183 C243.22819458 183.2638147 243.22819458 183.2638147 244.48120117 183.53295898 C276.29660172 189.96930295 310.72453988 182.5276312 337.73388672 164.86621094 C353.80620733 153.83176953 368.21318421 139.57363158 377 122 C351.26 122 325.52 122 299 122 C299 101.87 299 81.74 299 61 C350.81 61 402.62 61 456 61 C456 76.34030561 456 76.34030561 455.25 82.6875 C455.16057129 83.44530762 455.07114258 84.20311523 454.97900391 84.98388672 C448.99181936 132.2660407 424.32116005 176.87850066 387 206.68359375 C376.50206146 214.7894239 365.7704761 221.86423695 354 228 C353.00492432 228.52207031 353.00492432 228.52207031 351.98974609 229.0546875 C325.19825266 242.90943793 296.25522086 248.44182144 266.3125 248.375 C265.43292633 248.37478851 264.55335266 248.37457703 263.64712524 248.37435913 C251.21922484 248.34457565 239.31939114 247.84102567 227.25048828 244.60302734 C224.86315378 243.96333151 222.46516079 243.39477021 220.05859375 242.83203125 C173.13354809 231.56004999 131.82169064 200.22719687 106.43774414 159.42138672 C104.55881882 156.31742981 102.76684354 153.16881334 101 150 C100.6587207 149.39671875 100.31744141 148.7934375 99.96582031 148.171875 C86.8763833 124.72362038 78.6133248 95.43147784 78.9375 68.5 C78.94201172 67.77296875 78.94652344 67.0459375 78.95117188 66.296875 C78.96278807 64.53121319 78.98071559 62.7655947 79 61 C77.8553125 61.03222656 76.710625 61.06445312 75.53125 61.09765625 C53.95037224 61.06446949 32.03579593 49.74089393 16.8671875 35.02734375 C6.98517185 24.93683279 1.55608324 14.00474913 0 0 Z " fill="#2C6AED" transform="translate(71,175)"/>
<path d="M0 0 C1.06758545 0.02102783 1.06758545 0.02102783 2.15673828 0.04248047 C28.43449595 0.71626913 56.78701178 9.53740787 79.5 22.625 C80.14171143 22.98505127 80.78342285 23.34510254 81.44458008 23.71606445 C85.77469021 26.33486644 85.77469021 26.33486644 86.78466797 29.31640625 C87.03917299 32.48819672 86.4533954 34.22332734 85.2265625 37.1484375 C84.81776855 38.14367432 84.40897461 39.13891113 83.98779297 40.16430664 C83.53807129 41.22383545 83.08834961 42.28336426 82.625 43.375 C81.70214085 45.61027102 80.78029038 47.84595871 79.859375 50.08203125 C79.1487793 51.79253662 79.1487793 51.79253662 78.42382812 53.53759766 C76.17002672 59.01829237 74.02165844 64.53915394 71.875 70.0625 C71.12248388 71.99091978 70.36988828 73.91930854 69.6171875 75.84765625 C69.07798008 77.23171438 68.53885642 78.61580517 68 80 C64.57358935 80 63.30761243 79.26328837 60.34375 77.62109375 C59.41320801 77.11505615 58.48266602 76.60901855 57.52392578 76.08764648 C56.52603027 75.54309814 55.52813477 74.9985498 54.5 74.4375 C38.73965886 66.05688375 23.69549902 60.40629171 6 58 C4.90300781 57.81695312 3.80601562 57.63390625 2.67578125 57.4453125 C-15.88845824 55.1962973 -36.68800778 56.09067272 -52 68 C-58.26105457 74.13828879 -61.12345861 79.65447142 -61.4375 88.4375 C-61.23032968 95.96468831 -59.47331719 100.91932668 -54 106.125 C-39.24524472 117.56998837 -19.51289846 120.69563351 -1.75668335 124.79550171 C53.78489614 137.63567572 53.78489614 137.63567572 75 156 C75.721875 156.61101562 76.44375 157.22203125 77.1875 157.8515625 C90.75319569 170.30444722 98.53368888 188.94666464 99.3359375 207.19140625 C99.74528439 231.71151109 93.44309041 253.45257122 76.2890625 271.66796875 C75.53367187 272.43753906 74.77828125 273.20710938 74 274 C73.34773438 274.67675781 72.69546875 275.35351562 72.0234375 276.05078125 C48.41980339 298.78864499 12.1599061 304.45666755 -19.3125 304.375 C-20.40327347 304.37518127 -20.40327347 304.37518127 -21.51608276 304.37536621 C-35.92556439 304.34165203 -49.84701942 302.74958166 -64 300 C-65.21743896 299.77570313 -65.21743896 299.77570313 -66.45947266 299.546875 C-90.38165158 295.05659419 -114.215935 284.52216149 -133 269 C-132.3287614 264.34054697 -130.52286532 260.28280015 -128.61328125 256.0234375 C-128.27378952 255.25754303 -127.93429779 254.49164856 -127.58451843 253.70254517 C-126.86490958 252.08265081 -126.14274912 250.46388788 -125.41821289 248.84619141 C-124.32687699 246.40713158 -123.245863 243.96369528 -122.16601562 241.51953125 C-118.44229946 233.13884316 -114.60328425 224.94201471 -110 217 C-107.42704688 218.24711973 -104.99875721 219.57961082 -102.6015625 221.13671875 C-87.76589879 230.66722424 -72.89354316 237.90227638 -56 243 C-55.24605957 243.22880859 -54.49211914 243.45761719 -53.71533203 243.69335938 C-42.01865122 247.05076389 -30.27048226 247.40734129 -18.1875 247.5 C-17.44805145 247.51062469 -16.70860291 247.52124939 -15.94674683 247.53219604 C-1.30916883 247.69328965 12.64731009 245.53821475 25 237 C30.28226492 231.71773508 32.43875988 226.05036398 32.5 218.625 C32.31694132 210.13773394 30.19797973 206.27597923 24.4375 200.375 C10.53839624 189.86247989 -7.97636721 186.36011051 -24.56619263 182.37985229 C-98.24635974 164.6135089 -98.24635974 164.6135089 -116.10595703 136.24316406 C-120.24666733 129.22912308 -124.06004491 121.94944002 -126 114 C-126.20238281 113.24589844 -126.40476562 112.49179688 -126.61328125 111.71484375 C-131.62058728 89.67588456 -127.31937689 65.40303676 -115.6875 46.1875 C-111.94935509 40.65406181 -107.67374774 35.75886566 -103 31 C-102.26265625 30.23816406 -101.5253125 29.47632812 -100.765625 28.69140625 C-74.13018331 2.90508099 -35.0777286 -0.79423632 0 0 Z " fill="#434242" transform="translate(1385,93)"/>
<path d="M0 0 C21.12 0 42.24 0 64 0 C64.33 34.32 64.66 68.64 65 104 C67.31 101.69 69.62 99.38 72 97 C93.92118329 80.75891499 120.37140156 77.24010772 146.875 81.125 C166.12865142 84.3603747 183.44151892 93.97751314 196 109 C198.97995894 113.18418893 201.5620009 117.4810543 204 122 C204.47050781 122.85851562 204.94101563 123.71703125 205.42578125 124.6015625 C208.22772808 130.20545615 210.02558968 136.04289556 211.6875 142.0625 C211.89012451 142.77486816 212.09274902 143.48723633 212.30151367 144.22119141 C216.93548303 162.04950407 216.27596007 180.62315109 216.20278788 198.88358927 C216.19011373 202.59107614 216.18909709 206.2985678 216.18673706 210.006073 C216.18057053 216.99661616 216.16422654 223.98709526 216.14403808 230.97761047 C216.11730119 240.44518887 216.10666735 249.91278533 216.09503365 259.38039207 C216.07634126 274.25364251 216.03646396 289.1267579 216 304 C194.88 304 173.76 304 152 304 C151.96261719 294.83863281 151.92523437 285.67726563 151.88671875 276.23828125 C151.85642661 270.41860493 151.8253907 264.59894814 151.79101562 258.77929688 C151.73664613 249.55136938 151.68522837 240.32349607 151.65356445 231.09545898 C151.63048391 224.37302057 151.59697518 217.65072586 151.55129844 210.92840165 C151.5275007 207.37383487 151.50868441 203.81940922 151.50238609 200.26476479 C151.49513308 196.28218208 151.46458283 192.30008614 151.43237305 188.31762695 C151.43380814 187.15812027 151.43524323 185.99861359 151.4367218 184.80397034 C151.29422657 172.26507665 148.719113 161.61007388 142 151 C141.4225 150.071875 140.845 149.14375 140.25 148.1875 C132.14066857 140.30342777 121.64217815 137.00976586 110.5 136.625 C98.21448272 137.04863853 86.80840934 141.30022317 77.6875 149.625 C67.15698516 160.97551395 64.54873877 175.98954678 64.56762695 190.92871094 C64.5574353 192.15941315 64.54724365 193.39011536 64.53674316 194.65811157 C64.5119447 197.99213372 64.49992835 201.32571726 64.49388909 204.6597929 C64.48442981 208.15918763 64.45822115 211.6584587 64.43388367 215.15777588 C64.39042076 221.76597088 64.36175034 228.3741416 64.33856028 234.98243546 C64.30872872 243.25399403 64.25885598 251.52541715 64.20898438 259.796875 C64.12023321 274.5312085 64.0614999 289.26547166 64 304 C42.88 304 21.76 304 0 304 C0 203.68 0 103.36 0 0 Z " fill="#444443" transform="translate(1938,89)"/>
<path d="M0 0 C6.79275581 6.00055388 12.91715751 12.55201388 18.87890625 19.37109375 C17.44631853 22.64305827 15.69065309 24.80313331 13.16357422 27.31347656 C12.40293671 28.07396301 11.64229919 28.83444946 10.85861206 29.61798096 C9.6272905 30.83381866 9.6272905 30.83381866 8.37109375 32.07421875 C7.53047394 32.91200867 6.68985413 33.74979858 5.82376099 34.61297607 C3.13846624 37.28707806 0.4462997 39.95414099 -2.24609375 42.62109375 C-4.0681653 44.43313437 -5.88978552 46.24562893 -7.7109375 48.05859375 C-12.17576627 52.50137411 -16.64625658 56.9383954 -21.12109375 61.37109375 C-23.65788557 58.84144485 -26.18273117 56.30689994 -28.6640625 53.72265625 C-44.27739376 37.62501191 -63.69450643 27.55559652 -86.37329102 26.95166016 C-108.26482981 26.81398922 -127.43879429 32.99526183 -143.49609375 48.30859375 C-163.61230972 69.77432526 -168.98866714 97.71881738 -168.40625 126.14453125 C-167.48081389 151.72374028 -158.07326869 176.14743548 -139.49609375 193.99609375 C-122.75384664 208.54897008 -101.44093456 214.81253615 -79.49511719 213.57373047 C-57.30641556 211.67979563 -38.96689878 200.06094378 -24.515625 183.53515625 C-23.36539261 182.16261004 -22.23978945 180.76946337 -21.12109375 179.37109375 C-16.77186937 181.02844382 -14.02973508 184.28262621 -10.87109375 187.55859375 C-6.71982016 191.79312408 -2.53545398 195.85974599 1.98828125 199.69921875 C5.01030645 202.37158814 7.79331379 205.27735392 10.625 208.1484375 C13.90564737 211.38359929 17.36499357 214.39336393 20.87890625 217.37109375 C19.02680242 229.16463725 1.47582203 242.9510949 -7.77172852 249.73950195 C-38.53504 271.26659231 -76.83024318 277.80279563 -113.62109375 271.80859375 C-149.90676285 265.2680876 -184.47849047 245.52997236 -206.13671875 215.23046875 C-223.71566261 189.89179924 -235.14976934 159.78947513 -235.32421875 128.65625 C-235.32991882 127.84224228 -235.3356189 127.02823456 -235.3414917 126.18955994 C-235.35088471 124.47265904 -235.35745282 122.75574058 -235.36132812 121.03881836 C-235.37095165 118.47150226 -235.40199531 115.90501677 -235.43359375 113.33789062 C-235.50365146 102.35325222 -234.42971178 92.10439816 -232.12109375 81.37109375 C-231.97604401 80.68541824 -231.83099426 79.99974274 -231.68154907 79.29328918 C-224.119694 43.74090359 -203.53796206 10.93066269 -172.8671875 -9.08325195 C-122.23188436 -41.18150951 -46.3259112 -39.68097937 0 0 Z " fill="#434342" transform="translate(802.12109375,123.62890625)"/>
<path d="M0 0 C1.21284668 0.00483398 2.42569336 0.00966797 3.67529297 0.01464844 C32.47841148 0.20819177 60.46144648 5.60966993 81.8125 26.3125 C87.94942119 32.55829024 92.17878174 39.25491486 95.9375 47.125 C96.49050781 48.27355469 97.04351563 49.42210937 97.61328125 50.60546875 C106.47090529 70.7604098 106.5095896 91.90823326 106.34307575 113.52434564 C106.31767483 117.39194812 106.31569022 121.25957001 106.31097412 125.12724304 C106.29865586 132.4152678 106.26598936 139.7030459 106.22557616 146.99096316 C106.18050613 155.30322788 106.15878386 163.61550582 106.13879442 171.92786276 C106.09724343 188.99374138 106.02403509 206.05928117 105.9375 223.125 C86.7975 223.125 67.6575 223.125 47.9375 223.125 C47.6075 215.865 47.2775 208.605 46.9375 201.125 C45.16375 202.98125 43.39 204.8375 41.5625 206.75 C36.48919812 211.90556417 31.44779662 215.8753042 24.9375 219.125 C24.28136719 219.48851562 23.62523437 219.85203125 22.94921875 220.2265625 C2.60964292 230.57407486 -24.44620639 229.63094038 -45.625 222.875 C-64.73465498 216.37153733 -79.60881134 204.03960094 -88.5546875 185.91015625 C-92.49154397 176.58332718 -93.56255365 167.75863689 -93.5 157.6875 C-93.51998047 156.54990234 -93.53996094 155.41230469 -93.56054688 154.24023438 C-93.55195296 139.17510013 -87.76013958 125.83442578 -77.4375 114.875 C-57.9741355 96.53055812 -30.96739568 91.72197979 -5.1328125 91.9296875 C-3.76276865 91.93343144 -2.39272208 91.93627185 -1.02267456 91.93826294 C2.5315123 91.94579097 6.08552788 91.96534198 9.63964844 91.9876709 C13.28708582 92.00836703 16.9345517 92.01731472 20.58203125 92.02734375 C27.70058964 92.04860168 34.81903346 92.08260128 41.9375 92.125 C41.67026352 89.74822067 41.38973024 87.37425762 41.1015625 85 C41.0281665 84.33484375 40.95477051 83.6696875 40.87915039 82.984375 C39.85839616 74.77811439 36.34141939 68.18091593 30.5625 62.3125 C15.78482122 50.94082897 -2.82563743 51.38247086 -20.59863281 53.41503906 C-34.85309382 55.64567473 -49.28649079 62.7119566 -61.09375 70.875 C-63.0625 72.125 -63.0625 72.125 -65.0625 72.125 C-68.06445477 66.22244263 -71.05388874 60.31366954 -74.03466797 54.40039062 C-75.05034204 52.38916769 -76.06888246 50.37938962 -77.09033203 48.37109375 C-78.55735671 45.4855175 -80.01402248 42.59491612 -81.46875 39.703125 C-81.92809937 38.80507141 -82.38744873 37.90701782 -82.86071777 36.98175049 C-83.28115356 36.14118103 -83.70158936 35.30061157 -84.13476562 34.43457031 C-84.50782837 33.69732727 -84.88089111 32.96008423 -85.26525879 32.20050049 C-86.0625 30.125 -86.0625 30.125 -86.0625 26.125 C-67.93087264 11.11516587 -42.63618313 5.08908375 -20.0625 1.125 C-18.44214844 0.82722656 -18.44214844 0.82722656 -16.7890625 0.5234375 C-11.19379598 -0.07479854 -5.6229302 -0.02314916 0 0 Z " fill="#434242" transform="translate(938.0625,168.875)"/>
<path d="M0 0 C1.29357422 -0.00773438 2.58714844 -0.01546875 3.91992188 -0.0234375 C27.49894057 0.02383873 52.72722219 5.03994423 71.4375 20.25 C72.27796875 20.92804688 73.1184375 21.60609375 73.984375 22.3046875 C90.74120356 36.57338091 99.36606813 56.79792552 102.4375 78.25 C102.80749481 83.26188329 102.81969497 88.23973596 102.77807617 93.26342773 C102.777227 94.69419334 102.77771067 96.12496024 102.77940369 97.5557251 C102.78025378 101.38747803 102.76279079 105.21894108 102.74168181 109.05062747 C102.72274778 113.07443132 102.72115155 117.09824404 102.71760559 121.12208557 C102.70833371 128.71837413 102.68378677 136.31453097 102.65355712 143.91076189 C102.61986055 152.56872562 102.60348901 161.22669611 102.58847082 169.88470924 C102.55723201 187.67322902 102.50228185 205.46156857 102.4375 223.25 C83.6275 223.25 64.8175 223.25 45.4375 223.25 C45.1075 215.66 44.7775 208.07 44.4375 200.25 C42.1275 202.89 39.8175 205.53 37.4375 208.25 C20.16529422 224.61314232 -1.13149998 227.90792505 -23.96484375 227.49609375 C-41.72044384 226.89718863 -58.45303334 220.99604057 -72.5625 210.25 C-73.28824219 209.71890625 -74.01398438 209.1878125 -74.76171875 208.640625 C-87.10747988 198.84163188 -94.04663092 183.51947379 -96.5625 168.25 C-96.84285683 164.97305866 -96.89730093 161.72529455 -96.875 158.4375 C-96.86936035 157.5609375 -96.8637207 156.684375 -96.85791016 155.78125 C-96.56231566 139.93036083 -90.6887588 125.68585904 -79.5625 114.25 C-54.62412158 92.47338113 -22.64302922 91.73129226 8.69317627 92.04400635 C12.1736485 92.07530054 15.65419177 92.08852325 19.13476562 92.10351562 C25.90251031 92.13520595 32.66998481 92.18605566 39.4375 92.25 C39.15855448 90.02882313 38.86865046 87.80902091 38.57421875 85.58984375 C38.41397217 84.35355225 38.25372559 83.11726074 38.08862305 81.84350586 C36.57280973 73.47783049 32.32737485 66.27901976 25.4375 61.25 C8.92188233 51.54294085 -11.33960914 50.51546139 -30 54.6875 C-41.93989981 58.24164391 -54.04892851 63.81638253 -64.06640625 71.25390625 C-65.5625 72.25 -65.5625 72.25 -67.5625 72.25 C-70.72797162 66.18829138 -73.87783697 60.11866687 -77.0168457 54.04321289 C-78.08713559 51.97623891 -79.16101988 49.91112209 -80.23852539 47.84790039 C-81.78433848 44.88645543 -83.31721382 41.91862988 -84.84765625 38.94921875 C-85.33404068 38.0241301 -85.82042511 37.09904144 -86.32154846 36.1459198 C-86.76208054 35.28525406 -87.20261261 34.42458832 -87.65649414 33.5378418 C-88.04954239 32.78061325 -88.44259064 32.0233847 -88.84754944 31.24320984 C-89.5625 29.25 -89.5625 29.25 -88.5625 26.25 C-65.14528634 6.47186792 -29.58409744 -0.17741588 0 0 Z " fill="#424242" transform="translate(1606.5625,168.75)"/>
<path d="M0 0 C44.40014112 -0.06881966 88.80027654 -0.12160647 133.20046058 -0.15319599 C138.45444125 -0.15694765 143.70842182 -0.16083066 148.96240234 -0.16479492 C150.00827867 -0.16558185 151.054155 -0.16636878 152.13172455 -0.16717956 C169.01767643 -0.18019726 185.90359734 -0.20383084 202.78953092 -0.23145839 C220.14438498 -0.25961417 237.49922295 -0.27619765 254.85409892 -0.28226548 C265.54402647 -0.28636093 276.23386647 -0.29924746 286.92376705 -0.3237494 C294.27609777 -0.33973251 301.62838391 -0.34437226 308.9807307 -0.34050413 C313.20871786 -0.33860192 317.43655319 -0.34130352 321.66451263 -0.35761642 C369.1734915 -0.53173361 369.1734915 -0.53173361 390.9375 6.1875 C391.95924316 6.48938232 392.98098633 6.79126465 394.03369141 7.10229492 C403.67085536 10.03799511 412.91473102 13.65638353 422 18 C422.79631836 18.38027344 423.59263672 18.76054688 424.41308594 19.15234375 C435.17227327 24.37566589 444.98984942 30.32049053 454.38330078 37.72558594 C455.84534254 38.87808639 457.32596374 40.006921 458.80859375 41.1328125 C479.90364496 57.62017793 495.45903138 78.3366067 507.875 101.875 C508.33962646 102.75478516 508.80425293 103.63457031 509.28295898 104.54101562 C516 117.5104972 516 117.5104972 516 123 C507.27271537 123.27879938 498.54697566 123.49161909 489.81620026 123.62174606 C485.76127725 123.68422461 481.70941235 123.76884333 477.65625 123.90527344 C473.73966324 124.03627189 469.82600348 124.10752348 465.90739441 124.13852692 C464.41751497 124.16059775 462.92778542 124.20370857 461.43916321 124.26876068 C456.76319389 124.46485461 452.51439314 124.42964814 448 123 C444.38964526 119.41339883 442.28506158 115.50387487 440 111 C438.27203055 108.7218905 436.41287631 106.76885775 434.4375 104.6875 C433.96481689 104.18879395 433.49213379 103.69008789 433.00512695 103.17626953 C431.67591722 101.77860948 430.33828258 100.38897511 429 99 C428.12601562 98.03126953 428.12601562 98.03126953 427.234375 97.04296875 C408.77721461 77.14092964 377.34954105 63.9246679 350.55067682 62.90698755 C347.59809205 62.86950717 344.64697517 62.86378611 341.69415283 62.86869812 C340.5622665 62.86658241 339.43038017 62.86446669 338.26419425 62.86228687 C334.47462235 62.85629967 330.68508387 62.85728613 326.89550781 62.8581543 C324.17656798 62.85569305 321.45763112 62.85167418 318.73869324 62.84762573 C312.8827846 62.83952497 307.0268803 62.83457292 301.1709671 62.83133507 C291.89860721 62.82582229 282.62628378 62.80890665 273.35394287 62.78999329 C270.17656332 62.78363678 266.99918368 62.77732824 263.82180405 62.77101612 C263.02773233 62.76943236 262.23366061 62.7678486 261.41552611 62.76621684 C252.38167497 62.74828994 243.34782127 62.73206086 234.31396484 62.71704102 C233.48852573 62.71566514 232.66308662 62.71428927 231.8126342 62.71287171 C218.4628398 62.69098344 205.11305489 62.68019523 191.76324573 62.67267027 C178.02984946 62.6645729 164.29653377 62.64119633 150.56318355 62.6047166 C142.10917942 62.58279928 133.65534149 62.57299371 125.20131043 62.57921693 C119.39366611 62.58241428 113.58616272 62.57091306 107.77856204 62.54832252 C104.43834544 62.53577195 101.09870228 62.53156353 97.7584362 62.54073906 C66.92288024 62.61683112 40.68178241 57.34212177 18 35 C8.46358883 25.48058778 3.2660591 15.0450243 0 2 C0 1.34 0 0.68 0 0 Z " fill="#2C6AED" transform="translate(0,52)"/>
<path d="M0 0 C20.79 0 41.58 0 63 0 C63 19.14 63 38.28 63 58 C80.82 58 98.64 58 117 58 C117 74.5 117 91 117 108 C99.51 108 82.02 108 64 108 C64.06184688 124.59196349 64.06184688 124.59196349 64.16015625 141.18359375 C64.20837324 147.95784706 64.2524623 154.73193961 64.27099609 161.50634766 C64.28622068 166.97249644 64.32076895 172.43822258 64.36830902 177.90418243 C64.38306313 179.98195965 64.39103756 182.05979722 64.39188385 184.13762665 C64.14995106 202.21456302 64.14995106 202.21456302 71.25 218.5 C78.19605725 224.8145975 84.6643959 225.76645577 93.87890625 225.39453125 C102.20617553 224.78180296 109.65227546 221.80468229 117 218 C120.66584706 227.59677034 124.2060878 237.23908971 127.68682861 246.90441895 C128.14541493 248.17593338 128.60566007 249.44685078 129.06756592 250.71716309 C129.72420697 252.52459102 130.37395118 254.33452 131.0234375 256.14453125 C131.40419434 257.20003174 131.78495117 258.25553223 132.17724609 259.34301758 C133 262 133 262 133 265 C130.50252977 266.27601331 128.00222064 267.54586171 125.5 268.8125 C124.80390625 269.16892578 124.1078125 269.52535156 123.390625 269.89257812 C100.70408566 281.34087807 72.66821164 282.61570452 48.55859375 274.8984375 C30.07767661 268.25986935 15.85202203 256.11106611 7.34765625 238.30859375 C2.23978553 225.768401 -0.33437406 211.98555893 -0.22705078 198.47973633 C-0.22734283 197.49301941 -0.22763489 196.50630249 -0.22793579 195.48968506 C-0.2265569 192.27037355 -0.21106437 189.05130167 -0.1953125 185.83203125 C-0.19157724 183.58330919 -0.18873269 181.33458549 -0.18673706 179.08586121 C-0.17914103 173.19883646 -0.15952754 167.31191213 -0.1373291 161.42492676 C-0.11678342 155.40504311 -0.10771677 149.38514306 -0.09765625 143.36523438 C-0.07627752 131.57677195 -0.04112861 119.78841008 0 108 C-11.22 108 -22.44 108 -34 108 C-34 91.17 -34 74.34 -34 57 C-22.78 57 -11.56 57 0 57 C0 38.19 0 19.38 0 0 Z " fill="#434342" transform="translate(1772,117)"/>
<path d="M0 0 C0 19.47 0 38.94 0 59 C-8.91 59 -17.82 59 -27 59 C-40.87554505 62.46888626 -51.57951844 66.33203589 -59.68359375 78.53515625 C-67.58455773 92.22884694 -70.28486193 106.90097443 -70.31884766 122.55175781 C-70.33391609 124.17835579 -70.33391609 124.17835579 -70.34928894 125.83781433 C-70.37986224 129.37624645 -70.39708355 132.91460385 -70.4140625 136.453125 C-70.43279498 138.92462801 -70.45236991 141.39612476 -70.4727478 143.86761475 C-70.52385521 150.33815811 -70.56359494 156.80872216 -70.60089111 163.27935791 C-70.64814247 171.06147729 -70.7096479 178.84349735 -70.76873779 186.62553406 C-70.85668892 198.41698148 -70.92664042 210.20841213 -71 222 C-91.79 222 -112.58 222 -134 222 C-134 150.06 -134 78.12 -134 4 C-114.2 4 -94.4 4 -74 4 C-73.67 12.91 -73.34 21.82 -73 31 C-71.88625 29.35 -70.7725 27.7 -69.625 26 C-52.54252412 2.71655556 -27.33963187 0 0 0 Z " fill="#434241" transform="translate(1231,170)"/>
<path d="M0 0 C21.12 0 42.24 0 64 0 C64 72.6 64 145.2 64 220 C42.88 220 21.76 220 0 220 C0 147.4 0 74.8 0 0 Z " fill="#424241" transform="translate(2206,173)"/>
<path d="M0 0 C9.03082612 5.57743821 14.84581938 13.08439583 17.53125 23.39453125 C19.50566958 34.36901341 16.98047078 43.43887245 11.44140625 52.9296875 C7.35469742 58.79948609 1.52352853 62.31742752 -5 65 C-5.85980469 65.35835938 -6.71960937 65.71671875 -7.60546875 66.0859375 C-17.25583927 68.6845413 -30.99325542 68.83932211 -40.00390625 64.26171875 C-40.66261719 63.84535156 -41.32132813 63.42898437 -42 63 C-42.71027344 62.55269531 -43.42054688 62.10539062 -44.15234375 61.64453125 C-53.01019028 55.49187435 -57.73723362 48.63628037 -60 38 C-61.03072777 28.17913315 -60.04402606 18.94529354 -54.25 10.75 C-41.56529041 -4.62634309 -17.94089988 -10.36585327 0 0 Z " fill="#444342" transform="translate(2259,79)"/>
<path d="M0 0 C1.10131256 0.00141495 2.20262512 0.0028299 3.33731079 0.00428772 C6.84208942 0.00986873 10.3468033 0.02241779 13.8515625 0.03515625 C16.23307199 0.0401737 18.61458249 0.04473618 20.99609375 0.04882812 C26.82293862 0.05983194 32.64974593 0.07655118 38.4765625 0.09765625 C38.52919657 3.1174183 38.56746318 6.13624772 38.59765625 9.15625 C38.62200745 10.42680237 38.62200745 10.42680237 38.64685059 11.72302246 C38.7235838 21.978045 35.88471867 29.6793745 29.1640625 37.59765625 C20.40256186 46.48863719 9.94250025 51.08111576 -2.63647461 51.52172852 C-13.59854862 51.59268463 -23.12228359 49.52116109 -31.5234375 42.09765625 C-37.53361062 34.52397747 -38.12248552 27.58845622 -37.5234375 18.09765625 C-35.76046251 11.86847795 -30.61339986 7.83249876 -25.5234375 4.09765625 C-17.45902486 -0.16830116 -8.87391189 -0.04309765 0 0 Z " fill="#FBFBFB" transform="translate(1608.5234375,299.90234375)"/>
<path d="M0 0 C2.39777154 0.02009623 4.79555934 0.03834146 7.19335938 0.0546875 C13.02509872 0.0984332 18.85622218 0.1650974 24.6875 0.25 C24.75161653 3.44131218 24.7900964 6.63245605 24.82421875 9.82421875 C24.84254761 10.7210437 24.86087646 11.61786865 24.87976074 12.54187012 C24.94087833 20.17458417 23.57833589 25.59234748 19.6875 32.25 C19.3265625 32.9203125 18.965625 33.590625 18.59375 34.28125 C13.53584812 42.5184045 3.74144623 47.63909457 -5.3125 50.25 C-17.70453612 52.40450803 -30.13454209 52.83218082 -40.84765625 45.51953125 C-46.97529197 40.52774996 -50.6114536 35.41560502 -51.68359375 27.515625 C-52.02226421 20.08540032 -50.46359813 15.02822085 -45.72265625 9.34375 C-33.67680413 -2.6766352 -15.58347955 -0.22769989 0 0 Z " fill="#FBFBFB" transform="translate(956.3125,299.75)"/>
<path d="M0 0 C21.12 0 42.24 0 64 0 C64 72.6 64 145.2 64 220 C42.88 220 21.76 220 0 220 C0 147.4 0 74.8 0 0 Z M2 2 C2 73.28 2 144.56 2 218 C9.26 218 16.52 218 24 218 C24.66 215.69 25.32 213.38 26 211 C26.66 211 27.32 211 28 211 C28.4640625 212.7015625 28.4640625 212.7015625 28.9375 214.4375 C29.62924531 217.78775099 29.62924531 217.78775099 31 219 C41.56 219 52.12 219 63 219 C63 147.06 63 75.12 63 1 C42.66393461 1 22.32902747 1.46502559 2 2 Z " fill="#464545" transform="translate(2206,173)"/>
<path d="M0 0 C44.40014112 -0.06881966 88.80027654 -0.12160647 133.20046058 -0.15319599 C138.45444125 -0.15694765 143.70842182 -0.16083066 148.96240234 -0.16479492 C150.00827867 -0.16558185 151.054155 -0.16636878 152.13172455 -0.16717956 C169.01767643 -0.18019726 185.90359734 -0.20383084 202.78953092 -0.23145839 C220.14438498 -0.25961417 237.49922295 -0.27619765 254.85409892 -0.28226548 C265.54402647 -0.28636093 276.23386647 -0.29924746 286.92376705 -0.3237494 C294.27609777 -0.33973251 301.62838391 -0.34437226 308.9807307 -0.34050413 C313.20871786 -0.33860192 317.43655319 -0.34130352 321.66451263 -0.35761642 C345.6402156 -0.44538653 369.96106636 -0.48955433 393 7 C388.70272603 8.30660357 385.39784135 7.6596762 381 7 C381 6.34 381 5.68 381 5 C373.41 5 365.82 5 358 5 C358 4.34 358 3.68 358 3 C241.51 3 125.02 3 5 3 C4.67 3.66 4.34 4.32 4 5 C4.73940556 7.1515252 5.56617681 9.27343459 6.4375 11.375 C8.07420329 15.32627824 9 17.68577864 9 22 C9.66 22 10.32 22 11 22 C11.33 23.65 11.66 25.3 12 27 C4.66928673 21.02682622 1.90017377 10.89837475 0 2 C0 1.34 0 0.68 0 0 Z " fill="#3469DB" transform="translate(0,52)"/>
<path d="M0 0 C51.81 0 103.62 0 157 0 C157 15.34030561 157 15.34030561 156.25 21.6875 C156.16057129 22.44530762 156.07114258 23.20311523 155.97900391 23.98388672 C154.34362398 36.89885281 151.1200809 49.141182 147.0625 61.5 C146.73878418 62.49080566 146.41506836 63.48161133 146.08154297 64.50244141 C143.89225643 70.96382455 141.20954959 76.98137349 138 83 C137 80 137 80 138.375 77.125 C138.91125 76.09375 139.4475 75.0625 140 74 C140.69907414 71.26427415 140.69907414 71.26427415 141 69 C141.66 69 142.32 69 143 69 C143.18175781 68.05640625 143.36351562 67.1128125 143.55078125 66.140625 C144.76245328 59.95177709 146.00060189 53.79962168 147.5625 47.6875 C150.79717447 35.01835834 152.68706894 22.27035539 153.52905273 9.2253418 C153.5746508 8.529739 153.62024887 7.8341362 153.6672287 7.11745453 C153.778933 5.41168729 153.88957321 3.70585042 154 2 C134.4596619 2.10709681 114.91936417 2.21983226 95.37909794 2.33933926 C86.3068631 2.394692 77.23462433 2.4481773 68.16235352 2.49731445 C60.25788818 2.54013124 52.35345205 2.58640279 44.44903177 2.63687855 C40.26106995 2.66349975 36.073114 2.68835324 31.88511848 2.70907402 C27.94781864 2.72860891 24.01057448 2.75274304 20.0733242 2.78049088 C18.62406548 2.78987805 17.17479451 2.79754729 15.72551727 2.80341911 C13.75526542 2.81165199 11.78504452 2.82651762 9.81483459 2.84178162 C8.70960481 2.84823417 7.60437502 2.85468672 6.46565342 2.8613348 C4.0557088 2.72219548 4.0557088 2.72219548 3 4 C2.90131491 5.65191396 2.87201163 7.30803217 2.87060547 8.96289062 C2.86745331 10.02068726 2.86430115 11.07848389 2.86105347 12.16833496 C2.8630777 13.31934692 2.86510193 14.47035889 2.8671875 15.65625 C2.86623077 16.82885376 2.86527405 18.00145752 2.86428833 19.20959473 C2.8636063 21.69458062 2.86546216 24.17956829 2.86962891 26.66455078 C2.87497681 30.48343887 2.86968464 34.30220935 2.86328125 38.12109375 C2.86394203 40.52864609 2.86522318 42.93619837 2.8671875 45.34375 C2.86516327 46.49476196 2.86313904 47.64577393 2.86105347 48.83166504 C2.86420563 49.88946167 2.86735779 50.9472583 2.87060547 52.03710938 C2.87140106 52.97341187 2.87219666 53.90971436 2.87301636 54.87438965 C2.76310357 56.9843306 2.76310357 56.9843306 4 58 C6.29983022 58.12420734 8.60347386 58.17804453 10.90649414 58.20532227 C11.62840439 58.21522186 12.35031464 58.22512146 13.09410095 58.23532104 C15.49108551 58.26702299 17.88808992 58.29172759 20.28515625 58.31640625 C21.94283069 58.33696829 23.6004998 58.35796455 25.25816345 58.37937927 C29.62948295 58.4346775 34.00085037 58.48405244 38.37225342 58.53222656 C42.82959274 58.58238516 47.28686213 58.6381006 51.74414062 58.69335938 C60.4960347 58.80103568 69.24798712 58.90245945 78 59 C78 59.66 78 60.32 78 61 C52.26 61 26.52 61 0 61 C0 40.87 0 20.74 0 0 Z " fill="#3A69CC" transform="translate(370,236)"/>
<path d="M0 0 C3.50139542 1.29910431 6.49156386 2.85241413 9.625 4.875 C14.08090167 7.60582165 18.51318795 9.47563789 23.45703125 11.140625 C26 12 26 12 28.30859375 13.04296875 C31.89027101 14.31656952 35.49259296 14.67391924 39.25 15.0625 C46.87463054 15.87463054 46.87463054 15.87463054 48 17 C49.4313042 17.09980973 50.86750501 17.13029945 52.30228233 17.13307858 C53.2365563 17.13731962 54.17083028 17.14156067 55.13341558 17.14593023 C56.17198945 17.1455441 57.21056332 17.14515797 58.28060913 17.14476013 C59.3747005 17.14828698 60.46879186 17.15181382 61.59603751 17.15544754 C65.29368411 17.16619455 68.99130501 17.16982605 72.68896484 17.17358398 C75.3282036 17.17988517 77.96743821 17.18659154 80.60667419 17.19384766 C86.30880774 17.20881387 92.01093995 17.22034707 97.71308517 17.22979546 C105.97820936 17.24366714 114.24330293 17.26485807 122.50840516 17.28822399 C135.94407271 17.326189 149.37974588 17.36113248 162.81542969 17.39282227 C164.02279049 17.395673 164.02279049 17.395673 165.25454243 17.39858133 C176.64146253 17.4253322 188.02838686 17.44922293 199.41531558 17.47196633 C200.21476535 17.47356363 201.01421511 17.47516094 201.83789062 17.47680664 C202.63636104 17.47840011 203.43483146 17.47999357 204.25749795 17.48163532 C217.62004014 17.50849942 230.98255037 17.54294628 244.34505808 17.58346039 C252.57597486 17.60811453 260.80685737 17.62650836 269.0378051 17.636616 C274.69689572 17.64406585 280.3559404 17.65867931 286.01500045 17.67868023 C289.26996113 17.68995694 292.52483514 17.69711446 295.77981758 17.69767189 C343.56867869 17.71245246 343.56867869 17.71245246 353 24 C355.93198785 25.3403373 358.80932055 26.21515322 361.9375 26.9375 C366.17106246 27.95994527 370.28273622 29.25411515 373.40625 32.4296875 C375.19449262 34.19163243 377.04355611 35.38707502 379.1875 36.6875 C379.90292969 37.12449219 380.61835938 37.56148437 381.35546875 38.01171875 C381.89816406 38.33785156 382.44085938 38.66398437 383 39 C382.34 39.33 381.68 39.66 381 40 C379.2668457 39.27490234 379.2668457 39.27490234 377.17578125 38.0859375 C376.40194092 37.65676025 375.62810059 37.22758301 374.83081055 36.78540039 C373.58424683 36.0872522 373.58424683 36.0872522 372.3125 35.375 C354.34857884 25.63544309 335.1123949 20.83473244 314.69415283 20.86869812 C313.5622665 20.86658241 312.43038017 20.86446669 311.26419425 20.86228687 C307.47462235 20.85629967 303.68508387 20.85728613 299.89550781 20.8581543 C297.17656798 20.85569305 294.45763112 20.85167418 291.73869324 20.84762573 C285.8827846 20.83952497 280.0268803 20.83457292 274.1709671 20.83133507 C264.89860721 20.82582229 255.62628378 20.80890665 246.35394287 20.78999329 C243.17656332 20.78363678 239.99918368 20.77732824 236.82180405 20.77101612 C236.02773233 20.76943236 235.23366061 20.7678486 234.41552611 20.76621684 C225.38167497 20.74828994 216.34782127 20.73206086 207.31396484 20.71704102 C206.48852573 20.71566514 205.66308662 20.71428927 204.8126342 20.71287171 C191.4628398 20.69098344 178.11305489 20.68019523 164.76324573 20.67267027 C151.02984946 20.6645729 137.29653377 20.64119633 123.56318355 20.6047166 C115.10917942 20.58279928 106.65534149 20.57299371 98.20131043 20.57921693 C92.39366611 20.58241428 86.58616272 20.57091306 80.77856204 20.54832252 C77.43834544 20.53577195 74.09870228 20.53156353 70.7584362 20.54073906 C45.46772712 20.60314826 21.74067656 17.81633082 1 2 C0.67 1.34 0.34 0.68 0 0 Z " fill="#4973CB" transform="translate(27,94)"/>
<path d="M0 0 C52.14 0 104.28 0 158 0 C155.36 5.94 152.72 11.88 150 18 C148.24507385 23.33790036 146.52868628 28.60550129 145 34 C144.67 34 144.34 34 144 34 C144.43999148 28.61010435 145.52547548 23.48162298 146.875 18.25 C147.20242187 16.97640625 147.52984375 15.7028125 147.8671875 14.390625 C148.92109114 11.23618239 150.01875809 9.57669713 152 7 C152.33 5.35 152.66 3.7 153 2 C103.17 2 53.34 2 2 2 C2 3.98 2 5.96 2 8 C2.66 8 3.32 8 4 8 C6.15294651 13.28830549 8.27933894 18.55123997 10 24 C10.66 24 11.32 24 12 24 C12.33 25.65 12.66 27.3 13 29 C5.96246414 23.20438223 1.80186115 13.82911963 0 5 C0 3.35 0 1.7 0 0 Z " fill="#3866C1" transform="translate(71,175)"/>
<path d="M0 0 C44.40014112 -0.06881966 88.80027654 -0.12160647 133.20046058 -0.15319599 C138.45444125 -0.15694765 143.70842182 -0.16083066 148.96240234 -0.16479492 C150.00827867 -0.16558185 151.054155 -0.16636878 152.13172455 -0.16717956 C169.01767643 -0.18019726 185.90359734 -0.20383084 202.78953092 -0.23145839 C220.14438498 -0.25961417 237.49922295 -0.27619765 254.85409892 -0.28226548 C265.54402647 -0.28636093 276.23386647 -0.29924746 286.92376705 -0.3237494 C294.27609777 -0.33973251 301.62838391 -0.34437226 308.9807307 -0.34050413 C313.20871786 -0.33860192 317.43655319 -0.34130352 321.66451263 -0.35761642 C345.6402156 -0.44538653 369.96106636 -0.48955433 393 7 C388.70272603 8.30660357 385.39784135 7.6596762 381 7 C381 6.34 381 5.68 381 5 C379.85724609 5.03480469 379.85724609 5.03480469 378.69140625 5.0703125 C372.96181809 5.17045511 367.81090624 4.96505006 362.26037067 3.53307337 C353.85341335 1.55042287 345.17153381 1.84750948 336.59239197 1.84178162 C335.13681818 1.83720928 333.68124568 1.83220828 332.22567469 1.82681805 C328.24405925 1.81330403 324.26245231 1.80583823 320.28082001 1.79939139 C315.98031447 1.79135767 311.67982641 1.7776702 307.3793335 1.76467896 C299.93444812 1.74295823 292.48956093 1.72479772 285.04466057 1.70907402 C274.28066204 1.68633519 263.51668291 1.65819798 252.75270087 1.62875474 C235.28769783 1.58112796 217.82268685 1.53785051 200.35766602 1.49731445 C183.3947691 1.45793449 166.43187924 1.41650229 149.46899414 1.37231445 C148.4229232 1.36959018 147.37685227 1.36686591 146.29908221 1.36405908 C141.05110882 1.35037919 135.80313554 1.336659 130.55516231 1.32291877 C87.0367896 1.20903122 43.51840161 1.10220484 0 1 C0 0.67 0 0.34 0 0 Z " fill="#3962B9" transform="translate(0,52)"/>
<path d="M0 0 C21.12 0 42.24 0 64 0 C64 72.6 64 145.2 64 220 C42.88 220 21.76 220 0 220 C0 219.67 0 219.34 0 219 C7.59 218.67 15.18 218.34 23 218 C23.99 215.69 24.98 213.38 26 211 C26.66 211 27.32 211 28 211 C28.99 213.31 29.98 215.62 31 218 C46.84 218.495 46.84 218.495 63 219 C63 147.06 63 75.12 63 1 C42.21 1 21.42 1 0 1 C0 0.67 0 0.34 0 0 Z " fill="#8F8F8D" transform="translate(2206,173)"/>
<path d="M0 0 C3.54028641 1.57900098 6.33485444 3.73452938 9.375 6.125 C24.47074002 17.67031558 41.40551377 25.14662838 60 29 C60.82459717 29.17877686 61.64919434 29.35755371 62.4987793 29.54174805 C94.15821316 35.93975228 125.15195357 27.97415904 153 13 C152 16 152 16 150.46533203 17.05908203 C149.81935059 17.37216309 149.17336914 17.68524414 148.5078125 18.0078125 C147.80269531 18.35457031 147.09757813 18.70132812 146.37109375 19.05859375 C145.62988281 19.41050781 144.88867188 19.76242187 144.125 20.125 C143.39152344 20.48464844 142.65804687 20.84429687 141.90234375 21.21484375 C138.94989042 22.65073635 136.1200218 23.95999273 133 25 C132.67 25.66 132.34 26.32 132 27 C130.00976562 27.65429688 130.00976562 27.65429688 127.40625 28.21875 C126.4575 28.42886719 125.50875 28.63898438 124.53125 28.85546875 C123.5309375 29.06816406 122.530625 29.28085937 121.5 29.5 C120.0459375 29.81904297 120.0459375 29.81904297 118.5625 30.14453125 C116.61884038 30.5703599 114.67348786 30.98853092 112.7265625 31.39916992 C111.08765138 31.76032324 109.45412548 32.15007854 107.8359375 32.5949707 C101.01248166 34.42001813 94.13913802 34.2683366 87.13134766 34.20581055 C84.97677032 34.18730043 82.82261812 34.18530308 80.66796875 34.18554688 C70.14782346 34.14782346 70.14782346 34.14782346 69 33 C65.72522049 32.58451471 62.45266869 32.23082093 59.16601562 31.92578125 C54.47678394 31.4148585 51.21234598 30.23523444 47 28 C43.56837222 26.7917476 40.06408569 25.81783125 36.5703125 24.80664062 C31.20368825 23.20368825 31.20368825 23.20368825 29 21 C27.41550327 20.30730851 25.8075833 19.66729871 24.1875 19.0625 C20.57028748 17.65435214 17.15325987 16.31239057 14 14 C14 13.34 14 12.68 14 12 C12.02 11.34 10.04 10.68 8 10 C8 9.34 8 8.68 8 8 C7.34 8 6.68 8 6 8 C6 7.34 6 6.68 6 6 C5.38125 5.7525 4.7625 5.505 4.125 5.25 C1.64931313 3.79371361 1.04874998 2.62187494 0 0 Z " fill="#416DC5" transform="translate(253,329)"/>
<path d="M0 0 C19.32620657 15.62544361 41.22118696 44.83718915 45 70 C36.27271537 70.27879938 27.54697566 70.49161909 18.81620026 70.62174606 C14.76127725 70.68422461 10.70941235 70.76884333 6.65625 70.90527344 C2.73966324 71.03627189 -1.17399652 71.10752348 -5.09260559 71.13852692 C-6.58248503 71.16059775 -8.07221458 71.20370857 -9.56083679 71.26876068 C-14.23689274 71.46485824 -18.48351275 71.4227611 -23 70 C-26.6553128 66.43639937 -28.78468638 62.5597195 -31 58 C-31.98572354 56.32485019 -32.98079822 54.65499411 -34 53 C-32.125 53.3125 -32.125 53.3125 -30 54 C-28 57 -28 57 -28 60 C-27.01 60 -26.02 60 -25 60 C-22 65.75 -22 65.75 -22 68 C-0.88 68 20.24 68 42 68 C41.505 64.535 41.505 64.535 41 61 C40.34 61 39.68 61 39 61 C38.79246094 60.35675781 38.58492188 59.71351563 38.37109375 59.05078125 C34.36922498 45.82134094 34.36922498 45.82134094 26 36 C24.95281202 33.68745988 23.95653635 31.3514852 23 29 C22.10168984 26.69769234 22.10168984 26.69769234 21 25 C20.01 24.67 19.02 24.34 18 24 C15.84881504 21.57991692 14.09357269 19.15720212 12.4375 16.375 C11.12121814 13.98689982 11.12121814 13.98689982 9.3125 12.3125 C8.879375 11.879375 8.44625 11.44625 8 11 C8 10.34 8 9.68 8 9 C7.01 8.67 6.02 8.34 5 8 C0 2.53488372 0 2.53488372 0 0 Z " fill="#4772C1" transform="translate(471,105)"/>
<path d="M0 0 C4.34807169 0.39527924 8.1966357 0.96648713 12.3125 2.4375 C16.54398606 3.93735893 20.71511688 4.73487417 25.13671875 5.46875 C28.02101961 6.00389995 30.79623046 6.72605485 33.625 7.5 C46.27629545 10.6668427 58.76329544 11.18813105 71.75 11.25 C73.5606897 11.26389771 73.5606897 11.26389771 75.40795898 11.27807617 C82.45181846 11.25355321 89.13848928 10.68942141 96.07128906 9.42871094 C99.08905415 8.98696406 101.95460224 8.92865003 105 9 C105 8.34 105 7.68 105 7 C105.72445312 6.93941406 106.44890625 6.87882812 107.1953125 6.81640625 C112.17116533 6.38516567 117.08680391 5.92952359 122 5 C122 4.34 122 3.68 122 3 C125.63 2.67 129.26 2.34 133 2 C129.60366516 4.26422323 126.24729361 5.30795451 122.375 6.4375 C121.62806885 6.65631836 120.8811377 6.87513672 120.11157227 7.10058594 C106.8435768 10.85853298 92.99988475 13.10210025 79.20703125 13.23828125 C77.97694839 13.25290405 77.97694839 13.25290405 76.72201538 13.26782227 C59.73963283 13.42836094 43.50498323 13.45832381 27 9 C25.27157317 8.57251829 23.54238016 8.14812454 21.8125 7.7265625 C14.35583358 5.8678094 7.16526685 3.79323962 0 1 C0 0.67 0 0.34 0 0 Z " fill="#4771C4" transform="translate(269,410)"/>
<path d="M0 0 C0.66 0 1.32 0 2 0 C3.22554742 1.49053064 4.44908015 2.98282815 5.65625 4.48828125 C7.49888076 6.56124085 9.58344531 7.65122529 12 9 C19.10893855 14.02793296 19.10893855 14.02793296 21.375 16.5 C30.88341346 25.27699704 46.76276674 26.88650519 59.02734375 28.375 C62.37874567 29.07963115 65.00771268 30.35892439 68 32 C68.02505615 32.589021 68.0501123 33.17804199 68.07592773 33.78491211 C68.19332361 36.50258671 68.31538715 39.22003342 68.4375 41.9375 C68.47681641 42.86369141 68.51613281 43.78988281 68.55664062 44.74414062 C68.82079121 50.53513419 69.29764309 56.24539503 70 62 C69.01 62.495 69.01 62.495 68 63 C66.32098543 52.56612375 65.75034835 42.554717 66 32 C64.8553125 32.03222656 63.710625 32.06445312 62.53125 32.09765625 C40.24667051 32.06338734 19.14666672 20.26840308 3.3359375 5.453125 C1 3 1 3 0 0 Z " fill="#4571C7" transform="translate(84,204)"/>
<path d="M0 0 C2 2 2 2 2 6 C2.66 6 3.32 6 4 6 C5.38529821 11.45461169 6.2396943 16.36718401 6 22 C6.66 22 7.32 22 8 22 C10.70833333 28.77083333 13.41666667 35.54166667 16.125 42.3125 C16.43695313 43.08464844 16.74890625 43.85679687 17.0703125 44.65234375 C17.73220622 46.32376446 18.37037022 48.00466568 18.9921875 49.69140625 C20.77174031 54.42998293 22.19974009 57.55601446 26 61 C27.63389694 63.28528442 28.76530434 65.43914975 30 68 C29.60546875 70.21875 29.60546875 70.21875 29 72 C15.55661358 52.08387197 0 24.73522521 0 0 Z " fill="#3C6BC9" transform="translate(153,269)"/>
<path d="M0 0 C25.74 0 51.48 0 78 0 C75.75 6.75 75.75 6.75 73 9 C73 7.68 73 6.36 73 5 C73.66 5 74.32 5 75 5 C75 4.01 75 3.02 75 2 C50.25 2 25.5 2 0 2 C0 1.34 0 0.68 0 0 Z " fill="#C1DAFA" transform="translate(370,297)"/>
<path d="M0 0 C0.66 0 1.32 0 2 0 C2 20.13 2 40.26 2 61 C1.67 61 1.34 61 1 61 C0.67 58.03 0.34 55.06 0 52 C-0.33 52 -0.66 52 -1 52 C-1.02537644 45.39803896 -1.04287804 38.79609052 -1.05493164 32.1940918 C-1.05995719 29.94864431 -1.06677865 27.70320008 -1.07543945 25.45776367 C-1.08758281 22.22834466 -1.09324614 18.99896895 -1.09765625 15.76953125 C-1.10281754 14.76727005 -1.10797882 13.76500885 -1.11329651 12.7323761 C-1.11337204 11.79177841 -1.11344757 10.85118073 -1.11352539 9.88208008 C-1.115746 9.05823318 -1.11796661 8.23438629 -1.12025452 7.38557434 C-0.9920579 4.84244683 -0.55729388 2.48159069 0 0 Z " fill="#D7E8FB" transform="translate(368,236)"/>
<path d="M0 0 C1.32 0.33 2.64 0.66 4 1 C-12.09441648 18.08315196 -32.12206061 30.42023477 -53.125 40.5 C-53.82343018 40.83854004 -54.52186035 41.17708008 -55.24145508 41.52587891 C-59.16017958 43.35831795 -62.65056842 44.51221328 -67 45 C-64.10357159 42.64917788 -61.34643669 41.16480594 -57.875 39.8125 C-57.00617188 39.46832031 -56.13734375 39.12414062 -55.2421875 38.76953125 C-53 38 -53 38 -51 38 C-51 37.34 -51 36.68 -51 36 C-48.36 35.34 -45.72 34.68 -43 34 C-43 33.34 -43 32.68 -43 32 C-41.02 31.67 -39.04 31.34 -37 31 C-37 30.34 -37 29.68 -37 29 C-35.35 28.67 -33.7 28.34 -32 28 C-32 27.34 -32 26.68 -32 26 C-29 24 -29 24 -26 24 C-26 23.34 -26 22.68 -26 22 C-25.34 22 -24.68 22 -24 22 C-24 21.34 -24 20.68 -24 20 C-22.68 20 -21.36 20 -20 20 C-20 19.34 -20 18.68 -20 18 C-19.34 18 -18.68 18 -18 18 C-18 17.34 -18 16.68 -18 16 C-16.34467377 14.98133771 -14.67739862 13.98189187 -13 13 C-12.67 12.34 -12.34 11.68 -12 11 C-9.34243936 9.25160484 -7.02617555 8.00872518 -4 7 C-4 6.01 -4 5.02 -4 4 C-3.34 4 -2.68 4 -2 4 C-1.34 2.68 -0.68 1.36 0 0 Z " fill="#406CC4" transform="translate(469,367)"/>
<path d="M0 0 C0.66 0.33 1.32 0.66 2 1 C-3.86446804 12.1175341 -9.91771763 22.34951359 -18 32 C-18.49806152 32.598125 -18.99612305 33.19625 -19.50927734 33.8125 C-22.64328078 37.56743703 -25.80903515 41.29338493 -29 45 C-29.33 43.68 -29.66 42.36 -30 41 C-29.34 41 -28.68 41 -28 41 C-28 40.34 -28 39.68 -28 39 C-27.01 38.34 -26.02 37.68 -25 37 C-23.93753473 35.03247172 -22.92862192 33.03412421 -22 31 C-21.34 31 -20.68 31 -20 31 C-19.62875 29.7934375 -19.62875 29.7934375 -19.25 28.5625 C-18 26 -18 26 -15.875 25.1875 C-15.25625 25.125625 -14.6375 25.06375 -14 25 C-13.855625 24.21625 -13.71125 23.4325 -13.5625 22.625 C-13 20 -13 20 -12 18 C-11.34 18 -10.68 18 -10 18 C-9.896875 17.443125 -9.79375 16.88625 -9.6875 16.3125 C-8.65388525 12.83579586 -7.05126987 9.97040296 -4.375 7.5 C-2.5374145 5.49536127 -2.48426409 3.62886222 -2 1 C-1.34 0.67 -0.68 0.34 0 0 Z " fill="#3F6DCA" transform="translate(505,320)"/>
<path d="M0 0 C20.04060914 -0.63959391 20.04060914 -0.63959391 27 4 C29.93198785 5.3403373 32.80932055 6.21515322 35.9375 6.9375 C40.17106246 7.95994527 44.28273622 9.25411515 47.40625 12.4296875 C49.19449262 14.19163243 51.04355611 15.38707502 53.1875 16.6875 C54.26064453 17.34298828 54.26064453 17.34298828 55.35546875 18.01171875 C55.89816406 18.33785156 56.44085938 18.66398437 57 19 C56.01 19.495 56.01 19.495 55 20 C53.2668457 19.27490234 53.2668457 19.27490234 51.17578125 18.0859375 C50.01502075 17.44217163 50.01502075 17.44217163 48.83081055 16.78540039 C47.99976807 16.31996826 47.16872559 15.85453613 46.3125 15.375 C31.6383076 7.4190459 16.54103781 3.25559607 0 1 C0 0.67 0 0.34 0 0 Z " fill="#4772C7" transform="translate(353,114)"/>
<path d="M0 0 C-3.39633484 2.26422323 -6.75270639 3.30795451 -10.625 4.4375 C-11.37193115 4.65631836 -12.1188623 4.87513672 -12.88842773 5.10058594 C-25.78044077 8.75204199 -39.37146734 11.15172795 -52.78125 11.09765625 C-53.48020386 11.0962413 -54.17915771 11.09482635 -54.89929199 11.09336853 C-57.09957429 11.0878367 -59.29974923 11.07529777 -61.5 11.0625 C-63.00520685 11.05747616 -64.51041532 11.05291482 -66.015625 11.04882812 C-69.67711735 11.03788977 -73.33854817 11.02067359 -77 11 C-77 10.67 -77 10.34 -77 10 C-75.73893433 9.970271 -75.73893433 9.970271 -74.45239258 9.93994141 C-71.26695624 9.86081371 -68.08183211 9.77410221 -64.89672852 9.68261719 C-63.53059556 9.6448513 -62.1643807 9.60991832 -60.7980957 9.578125 C-52.69201727 9.3873236 -44.85865274 8.86096996 -36.8737793 7.41552734 C-33.87729534 6.98225781 -31.02335181 6.9310134 -28 7 C-28 6.34 -28 5.68 -28 5 C-27.27554688 4.93941406 -26.55109375 4.87882812 -25.8046875 4.81640625 C-20.82883467 4.38516567 -15.91319609 3.92952359 -11 3 C-11 2.34 -11 1.68 -11 1 C-7.26562152 0.12132271 -3.83225427 -0.08912219 0 0 Z " fill="#3C66BC" transform="translate(402,412)"/>
<path d="M0 0 C5.81477938 0.5737249 10.72549127 2.18083064 16.125 4.375 C16.98085693 4.72006592 17.83671387 5.06513184 18.71850586 5.4206543 C25.50237339 8.22957541 32.05424044 11.41742774 38.5625 14.8125 C39.46049316 15.28026855 40.35848633 15.74803711 41.28369141 16.22998047 C48.14889433 19.89486323 48.14889433 19.89486323 51 23 C47.54531142 22.67612295 45.26742974 21.63465049 42.4375 19.75 C38.11338521 16.90020244 33.55330841 15.07109573 28.734375 13.2109375 C26 12 26 12 24.1328125 10.5078125 C21.07593595 8.34672395 17.68316318 7.51195466 14.125 6.5 C9.12830745 5.06310326 4.60716687 3.48411505 0 1 C0 0.67 0 0.34 0 0 Z " fill="#3C6AC6" transform="translate(393,60)"/>
<path d="M0 0 C0.66 0 1.32 0 2 0 C2.99 2.31 3.98 4.62 5 7 C21.335 7.495 21.335 7.495 38 8 C38 8.33 38 8.66 38 9 C16.88 9 -4.24 9 -26 9 C-26 8.67 -26 8.34 -26 8 C-18.41 7.67 -10.82 7.34 -3 7 C-2.01 4.69 -1.02 2.38 0 0 Z " fill="#C9C9C8" transform="translate(2232,384)"/>
<path d="M0 0 C3.50139542 1.29910431 6.49156386 2.85241413 9.625 4.875 C14.08090167 7.60582165 18.51318795 9.47563789 23.45703125 11.140625 C26 12 26 12 28.30859375 13.046875 C32.56757988 14.55513714 36.9983027 14.78593019 41.46875 15.2109375 C43.3205155 15.40983083 45.16224814 15.6979038 47 16 C47.495 16.99 47.495 16.99 48 18 C43.06830446 19.15814312 39.03937448 18.73956531 34.1875 17.5625 C33.454104 17.38638184 32.72070801 17.21026367 31.96508789 17.02880859 C20.45169589 14.04045027 9.00204784 8.85285024 0 1 C0 0.67 0 0.34 0 0 Z " fill="#4772C5" transform="translate(27,94)"/>
<path d="M0 0 C0.33 0 0.66 0 1 0 C0.92998779 0.69295166 0.85997559 1.38590332 0.7878418 2.09985352 C0.01621736 10.38986987 -0.18328162 18.61464287 -0.1875 26.9375 C-0.19974609 28.20529297 -0.21199219 29.47308594 -0.22460938 30.77929688 C-0.23584221 38.08438534 0.26289939 45.00629978 1.5690918 52.19750977 C1.97719314 54.85167142 2.07759532 57.32035453 2 60 C1.31379969 58.67661368 0.65213539 57.34050052 0 56 C-0.34772461 55.31510498 -0.69544922 54.63020996 -1.05371094 53.92456055 C-2.36228838 49.88032702 -2.28599585 46.11943087 -2.265625 41.89453125 C-2.26753845 41.01528488 -2.2694519 40.13603851 -2.27142334 39.23014832 C-2.27278172 37.3717724 -2.26910954 35.51338688 -2.26074219 33.6550293 C-2.25010188 30.83945832 -2.26061601 28.02453475 -2.2734375 25.20898438 C-2.27211459 23.39583195 -2.2695495 21.58267991 -2.265625 19.76953125 C-2.26967346 18.94000443 -2.27372192 18.1104776 -2.27789307 17.2558136 C-2.23128923 11.31267032 -1.34312321 5.78466797 0 0 Z " fill="#4C73BC" transform="translate(214,209)"/>
<path d="M0 0 C4.29 0 8.58 0 13 0 C13.33 0.66 13.66 1.32 14 2 C13.02305915 4.26334743 11.98833875 6.42976645 10.875 8.625 C7.01357749 16.50999176 4.40298567 24.57293966 2 33 C1.67 33 1.34 33 1 33 C1.43999148 27.61010435 2.52547548 22.48162298 3.875 17.25 C4.20242187 15.97640625 4.52984375 14.7028125 4.8671875 13.390625 C5.91071844 10.26722894 6.94866599 8.5002409 9 6 C9.71433121 3.35065178 9.71433121 3.35065178 10 1 C6.7 1 3.4 1 0 1 C0 0.67 0 0.34 0 0 Z " fill="#406DC8" transform="translate(214,176)"/>
<path d="M0 0 C0.33 0 0.66 0 1 0 C1 2.31 1 4.62 1 7 C1.66 7 2.32 7 3 7 C5.15294651 12.28830549 7.27933894 17.55123997 9 23 C9.66 23 10.32 23 11 23 C11.33 24.65 11.66 26.3 12 28 C4.6711201 21.96445185 0.51166761 12.23796871 -1 3 C-0.67 2.01 -0.34 1.02 0 0 Z " fill="#3F6CC6" transform="translate(72,176)"/>
<path d="M0 0 C1.10723191 3.29927077 0.89555913 5.15604898 -0.2578125 8.4140625 C-0.55163818 9.25356445 -0.84546387 10.09306641 -1.14819336 10.95800781 C-1.63171265 12.27816895 -1.63171265 12.27816895 -2.125 13.625 C-2.4454126 14.52057617 -2.7658252 15.41615234 -3.09594727 16.33886719 C-5.32118412 22.44535693 -7.77099922 28.34552858 -11 34 C-12 31 -12 31 -10.625 28.125 C-10.08875 27.09375 -9.5525 26.0625 -9 25 C-8.30092586 22.26427415 -8.30092586 22.26427415 -8 20 C-7.34 20 -6.68 20 -6 20 C-5.90203125 19.31035156 -5.8040625 18.62070312 -5.703125 17.91015625 C-4.66676253 11.39715419 -2.98945115 5.87731902 0 0 Z " fill="#426DC2" transform="translate(519,285)"/>
<path d="M0 0 C2.95987338 2.80992385 5.30468659 5.71038764 7.625 9.0625 C11.98040585 15.16006818 16.86346617 20.55822133 22 26 C19 26 19 26 16.625 23.8125 C15.325625 22.4203125 15.325625 22.4203125 14 21 C13.22011719 20.26523437 12.44023437 19.53046875 11.63671875 18.7734375 C8.67974816 15.66314251 6.46106631 12.43280443 4.1875 8.8125 C3.78080078 8.18408203 3.37410156 7.55566406 2.95507812 6.90820312 C0 2.26450893 0 2.26450893 0 0 Z " fill="#4770C1" transform="translate(229,300)"/>
<path d="M0 0 C2.83086435 2.83086435 3.58143488 6.27897947 4.8125 10 C6.85189015 16.02054344 9.09503 21.652607 12.21484375 27.21484375 C12.47394531 27.80394531 12.73304688 28.39304687 13 29 C12.67 29.66 12.34 30.32 12 31 C10.82558465 28.89983377 9.66035988 26.79541245 8.5 24.6875 C8.16613281 24.09259766 7.83226562 23.49769531 7.48828125 22.88476562 C5.93174886 20.04171156 5 18.29339012 5 15 C4.34 15 3.68 15 3 15 C0.5978396 10.1956792 0.38877771 5.26896105 0 0 Z " fill="#4772C3" transform="translate(216,269)"/>
<path d="M0 0 C2.475 0.495 2.475 0.495 5 1 C5.33 1.99 5.66 2.98 6 4 C6.99 4.33 7.98 4.66 9 5 C10.34423339 6.65788785 11.67618483 8.32576317 13 10 C13.9075 10.721875 14.815 11.44375 15.75 12.1875 C16.4925 12.785625 17.235 13.38375 18 14 C18 14.66 18 15.32 18 16 C18.66 16 19.32 16 20 16 C19.67 16.99 19.34 17.98 19 19 C12.66666667 12.66666667 6.33333333 6.33333333 0 0 Z " fill="#426EC2" transform="translate(417,139)"/>
<path d="M0 0 C0.33 0 0.66 0 1 0 C1.58685713 3.94032645 1.59874298 5.98278075 -0.453125 9.46875 C-2.21167636 11.80363331 -3.87356543 13.99195365 -6 16 C-6.99 16 -7.98 16 -9 16 C-7.30403824 12.48876259 -5.38971877 9.12460782 -3.4375 5.75 C-2.81746094 4.67234375 -2.19742187 3.5946875 -1.55859375 2.484375 C-1.04425781 1.66453125 -0.52992188 0.8446875 0 0 Z " fill="#406FCE" transform="translate(448,297)"/>
<path d="M0 0 C0.33 0 0.66 0 1 0 C1.21192221 5.19209404 0.5912689 9.126739 -1 14 C-1.66 14 -2.32 14 -3 14 C-3.12375 14.94875 -3.2475 15.8975 -3.375 16.875 C-4 20 -4 20 -6 22 C-5.566875 20.1128125 -5.566875 20.1128125 -5.125 18.1875 C-4.08647316 13.57995135 -3.29731975 8.94994946 -2.5625 4.28515625 C-2 2 -2 2 0 0 Z " fill="#3B6CD1" transform="translate(522,271)"/>
<path d="M0 0 C3.76257831 1.67225703 6.85058471 4.02206411 10.125 6.5 C10.66253906 6.90347656 11.20007813 7.30695313 11.75390625 7.72265625 C13.96226233 9.39131433 16.04033619 11.04033619 18 13 C14.28111761 12.49287967 11.26545761 11.88391785 8 10 C8 9.34 8 8.68 8 8 C7.34 8 6.68 8 6 8 C6 7.34 6 6.68 6 6 C5.38125 5.7525 4.7625 5.505 4.125 5.25 C1.64931313 3.79371361 1.04874998 2.62187494 0 0 Z " fill="#4671C7" transform="translate(253,329)"/>
<path d="M0 0 C0.66 0 1.32 0 2 0 C2.226875 0.5775 2.45375 1.155 2.6875 1.75 C4.32281069 4.55338976 6.47226728 6.00442154 9 8 C9 8.66 9 9.32 9 10 C9.66 10 10.32 10 11 10 C12.0625 11.8125 12.0625 11.8125 13 14 C12.67 14.99 12.34 15.98 12 17 C10.36683159 15.11070739 8.74358315 13.21422373 7.125 11.3125 C6.43470703 10.51682617 6.43470703 10.51682617 5.73046875 9.70507812 C3.11716005 6.61834394 1.24553624 3.85829904 0 0 Z " fill="#416DC7" transform="translate(183,341)"/>
<path d="M0 0 C2 3 2 3 3.4375 6.375 C4.85950155 9.92852779 4.85950155 9.92852779 6.6875 12.6875 C8 15 8 15 8 19 C8.66 19 9.32 19 10 19 C10.33 20.65 10.66 22.3 11 24 C5.18665778 19.26320263 1.8641194 11.1175468 0 4 C0 2.68 0 1.36 0 0 Z " fill="#3E6BC4" transform="translate(1,55)"/>
<path d="M0 0 C1.6498275 0.42218816 3.29483665 0.86324425 4.9375 1.3125 C6.31228516 1.67794922 6.31228516 1.67794922 7.71484375 2.05078125 C8.46894531 2.36402344 9.22304687 2.67726563 10 3 C10.33 3.99 10.66 4.98 11 6 C11.639375 6.0825 12.27875 6.165 12.9375 6.25 C17.20541517 7.29520372 21.03107667 9.14091826 25 11 C25 11.66 25 12.32 25 13 C19.99597048 11.48386547 15.46776081 9.40085681 10.8125 7.0625 C10.10158203 6.71509766 9.39066406 6.36769531 8.65820312 6.00976562 C7.97306641 5.66751953 7.28792969 5.32527344 6.58203125 4.97265625 C5.96561768 4.66593994 5.3492041 4.35922363 4.71411133 4.04321289 C2.84433392 2.90526119 1.48354747 1.60048291 0 0 Z " fill="#4871C1" transform="translate(243,397)"/>
<path d="M0 0 C9.29969244 -0.69602688 17.20121611 1.34017869 26 4 C21.70272603 5.30660357 18.39784135 4.6596762 14 4 C14 3.34 14 2.68 14 2 C13.15695312 2.02320313 12.31390625 2.04640625 11.4453125 2.0703125 C9.80175781 2.09738281 9.80175781 2.09738281 8.125 2.125 C7.03445313 2.14820313 5.94390625 2.17140625 4.8203125 2.1953125 C2 2 2 2 0 0 Z " fill="#436FC8" transform="translate(367,55)"/>
<path d="M0 0 C0.33 0 0.66 0 1 0 C1.50790159 3.51973999 2.00488523 7.04094042 2.5 10.5625 C2.64308594 11.55314453 2.78617188 12.54378906 2.93359375 13.56445312 C3.65920623 18.76467588 4.17673411 23.74952418 4 29 C-0.75064309 20.44884244 -0.1597286 9.494978 0 0 Z " fill="#3268DA" transform="translate(152,246)"/>
<path d="M0 0 C1.875 0.3125 1.875 0.3125 4 1 C6 4 6 4 6 7 C6.99 7 7.98 7 9 7 C9.99 9.31 10.98 11.62 12 14 C11.01 14 10.02 14 9 14 C7.24609375 11.953125 7.24609375 11.953125 5.4375 9.25 C4.83808594 8.36828125 4.23867188 7.4865625 3.62109375 6.578125 C2.26668816 4.42413057 1.0801875 2.30010074 0 0 Z " fill="#3E6DC9" transform="translate(437,158)"/>
<path d="M0 0 C0.66 0 1.32 0 2 0 C0.52357373 5.22654901 -2.82231936 8.16826439 -6.625 11.8125 C-7.54152344 12.7087207 -7.54152344 12.7087207 -8.4765625 13.62304688 C-9.97764839 15.08895106 -11.48792862 16.54542993 -13 18 C-13.66 17.67 -14.32 17.34 -15 17 C-14.25234375 16.27554687 -13.5046875 15.55109375 -12.734375 14.8046875 C-11.7393131 13.82840035 -10.74453663 12.85182223 -9.75 11.875 C-9.25886719 11.400625 -8.76773437 10.92625 -8.26171875 10.4375 C-5.76957294 7.9785828 -3.64369082 5.59625402 -1.765625 2.6328125 C-1.18296875 1.76398438 -0.6003125 0.89515625 0 0 Z " fill="#3168DE" transform="translate(439,313)"/>
<path d="M0 0 C0.66 0 1.32 0 2 0 C2.99 2.64 3.98 5.28 5 8 C2.36 8 -0.28 8 -3 8 C-2.01 5.36 -1.02 2.72 0 0 Z " fill="#989897" transform="translate(2232,384)"/>
<path d="M0 0 C2.31309705 0.11341637 4.62550185 0.24103807 6.9375 0.375 C8.86916016 0.47941406 8.86916016 0.47941406 10.83984375 0.5859375 C12.40412109 0.79089844 12.40412109 0.79089844 14 1 C14.33 1.66 14.66 2.32 15 3 C9.6586362 4.33534095 6.13859499 3.65480178 1 2 C0.67 1.34 0.34 0.68 0 0 Z " fill="#3E6DD0" transform="translate(60,109)"/>
<path d="M0 0 C6.31631828 0.40316925 10.64993984 2.71232131 16 6 C16 6.66 16 7.32 16 8 C10.31497465 6.35433477 5.23318364 3.70967216 0 1 C0 0.67 0 0.34 0 0 Z " fill="#D4E8F8" transform="translate(418,68)"/>
<path d="M0 0 C0.33 0 0.66 0 1 0 C1.33808686 2.06172613 1.67027361 4.1244203 2 6.1875 C2.185625 7.33605469 2.37125 8.48460937 2.5625 9.66796875 C2.93489477 12.50415393 3.08596021 15.14719564 3 18 C0.11705579 12.44003617 -1.36190853 8.39371736 -1 2 C-0.67 1.34 -0.34 0.68 0 0 Z " fill="#4774CC" transform="translate(213,251)"/>
<path d="M0 0 C0.66 0 1.32 0 2 0 C0.55575365 3.23861303 -1.25772247 5.61969163 -3.625 8.25 C-4.25664062 8.95640625 -4.88828125 9.6628125 -5.5390625 10.390625 C-6.02117187 10.92171875 -6.50328125 11.4528125 -7 12 C-7.33 11.01 -7.66 10.02 -8 9 C-6.1875 6.3125 -6.1875 6.3125 -4 4 C-3.34 4 -2.68 4 -2 4 C-2 3.34 -2 2.68 -2 2 C-1.34 2 -0.68 2 0 2 C0 1.34 0 0.68 0 0 Z " fill="#DBEFFD" transform="translate(437,311)"/>
<path d="M0 0 C4.47959418 1.14185734 8.14522751 2.43015167 12 5 C11.67 5.99 11.34 6.98 11 8 C7.37 6.02 3.74 4.04 0 2 C0 1.34 0 0.68 0 0 Z " fill="#3969CC" transform="translate(267,341)"/>
<path d="M0 0 C0.66 0 1.32 0 2 0 C7.37129841 10.37357631 7.37129841 10.37357631 9 16 C4.49583156 12.32993682 2.23209799 7.25091904 0 2 C0 1.34 0 0.68 0 0 Z " fill="#D7ECFC" transform="translate(224,288)"/>
<path d="M0 0 C0 3 0 3 -1.4609375 4.82421875 C-2.09257812 5.43910156 -2.72421875 6.05398437 -3.375 6.6875 C-4.00148438 7.31011719 -4.62796875 7.93273437 -5.2734375 8.57421875 C-7 10 -7 10 -9 10 C-7.61811547 6.78956118 -6.07578097 4.95063635 -3.375 2.75 C-2.74335938 2.22921875 -2.11171875 1.7084375 -1.4609375 1.171875 C-0.73777344 0.59179688 -0.73777344 0.59179688 0 0 Z " fill="#4B4B4A" transform="translate(2214,81)"/>
<path d="M0 0 C1.94113934 0.92994117 3.8777951 1.8692453 5.8125 2.8125 C6.89144531 3.33457031 7.97039062 3.85664062 9.08203125 4.39453125 C11.56579702 5.76110117 13.1799378 6.87340101 15 9 C10.99251347 8.41512359 8.14263232 7.15605425 4.6875 5.0625 C3.80449219 4.53785156 2.92148437 4.01320313 2.01171875 3.47265625 C1.34785156 2.98667969 0.68398438 2.50070313 0 2 C0 1.34 0 0.68 0 0 Z " fill="#456FC3" transform="translate(429,74)"/>
<path d="M0 0 C4.04161955 1.34484714 6.38678154 3.0505162 9.3125 6.125 C10.00988281 6.84945313 10.70726562 7.57390625 11.42578125 8.3203125 C11.94527344 8.87460937 12.46476563 9.42890625 13 10 C8.87731395 10 7.79669528 8.32277298 4.8125 5.5625 C3.91144531 4.73878906 3.01039063 3.91507812 2.08203125 3.06640625 C1.39496094 2.38449219 0.70789063 1.70257813 0 1 C0 0.67 0 0.34 0 0 Z " fill="#4770C1" transform="translate(207,370)"/>
<path d="M0 0 C1.32 0.33 2.64 0.66 4 1 C1.69 3.31 -0.62 5.62 -3 8 C-3.33 6.68 -3.66 5.36 -4 4 C-3.34 4 -2.68 4 -2 4 C-1.34 2.68 -0.68 1.36 0 0 Z " fill="#4572CB" transform="translate(469,367)"/>
<path d="M0 0 C4.2742558 1.5830577 6.26531794 4.50568404 9 8 C7.68 8 6.36 8 5 8 C5 7.34 5 6.68 5 6 C4.34 6 3.68 6 3 6 C0 2.53846154 0 2.53846154 0 0 Z " fill="#416DC7" transform="translate(462,97)"/>
<path d="M0 0 C5.56890517 0.47986031 10.67067568 1.29915181 16 3 C13 5 13 5 10.3125 4.625 C9.549375 4.41875 8.78625 4.2125 8 4 C8 3.34 8 2.68 8 2 C5.36 1.67 2.72 1.34 0 1 C0 0.67 0 0.34 0 0 Z " fill="#3F6ED3" transform="translate(288,415)"/>
<path d="M0 0 C-0.33 0.99 -0.66 1.98 -1 3 C-5.43795241 4.4053516 -9.32130569 5.29241839 -14 5 C-11.35493484 3.23662322 -9.40786033 2.3439149 -6.4375 1.375 C-5.65246094 1.11460937 -4.86742187 0.85421875 -4.05859375 0.5859375 C-2 0 -2 0 0 0 Z " fill="#D2E6F9" transform="translate(404,412)"/>
<path d="M0 0 C0.66 0.33 1.32 0.66 2 1 C-0.97 3.475 -0.97 3.475 -4 6 C-4 5.01 -4 4.02 -4 3 C-2 1.3125 -2 1.3125 0 0 Z M-10 6 C-8.35 6 -6.7 6 -5 6 C-6.485 7.485 -6.485 7.485 -8 9 C-8.99 8.67 -9.98 8.34 -11 8 C-10.67 7.34 -10.34 6.68 -10 6 Z " fill="#3268DC" transform="translate(416,336)"/>
<path d="M0 0 C1.98 0 3.96 0 6 0 C5.01 0.33 4.02 0.66 3 1 C3 1.66 3 2.32 3 3 C0.1875 3.625 0.1875 3.625 -3 4 C-3.99 3.34 -4.98 2.68 -6 2 C-4.02 2 -2.04 2 0 2 C0 1.34 0 0.68 0 0 Z " fill="#416FCE" transform="translate(374,417)"/>
<path d="M0 0 C6.875 3.75 6.875 3.75 8 6 C4.62537285 5.45276317 2.91765 4.9451 0 3 C0 2.01 0 1.02 0 0 Z " fill="#3F6DCA" transform="translate(444,83)"/>
<path d="M0 0 C2.88437779 1.29299694 4.87219421 2.65941363 7 5 C6.67 5.99 6.34 6.98 6 8 C4.9970458 6.85675161 3.99770973 5.71032809 3 4.5625 C2.443125 3.92441406 1.88625 3.28632813 1.3125 2.62890625 C0 1 0 1 0 0 Z " fill="#4570C4" transform="translate(198,360)"/>
<path d="M0 0 C1.12894876 0.93274109 2.25300876 1.87140122 3.375 2.8125 C4.00148437 3.33457031 4.62796875 3.85664063 5.2734375 4.39453125 C7 6 7 6 9 9 C5.18063472 7.44396229 2.73955562 5.04395069 0 2 C0 1.34 0 0.68 0 0 Z " fill="#3A67C2" transform="translate(242,318)"/>
<path d="M0 0 C3.63 0.33 7.26 0.66 11 1 C11.33 1.99 11.66 2.98 12 4 C6.06 2.515 6.06 2.515 0 1 C0 0.67 0 0.34 0 0 Z " fill="#CCE3F8" transform="translate(390,58)"/>
<path d="M0 0 C0.66 0.33 1.32 0.66 2 1 C0.02 3.31 -1.96 5.62 -4 8 C-4.33 6.68 -4.66 5.36 -5 4 C-4.34 4 -3.68 4 -3 4 C-3 3.34 -3 2.68 -3 2 C-2.01 1.34 -1.02 0.68 0 0 Z " fill="#426EC6" transform="translate(480,357)"/>
<path d="M0 0 C0.33 0.66 0.66 1.32 1 2 C-0.25 5.0625 -0.25 5.0625 -2 8 C-2.99 8.33 -3.98 8.66 -5 9 C-3.50163895 5.88801935 -1.80066242 2.9465385 0 0 Z " fill="#D9EDFB" transform="translate(499,334)"/>
<path d="M0 0 C0.33 0 0.66 0 1 0 C1.36923077 6.52307692 1.36923077 6.52307692 -0.5 8.9375 C-0.995 9.288125 -1.49 9.63875 -2 10 C-1.54177532 6.53058454 -1.10868317 3.32604951 0 0 Z " fill="#D3E8FA" transform="translate(218,199)"/>
</svg>
